*******************************************************************************
                             Animus (2013) DVDRip
*******************************************************************************

-------------------------------------------------------------------------------
                              General Information
-------------------------------------------------------------------------------
Type.................: Movie



Video Format.........: AVI
Video Bitrate........: 1498
Resolution...........: 20 x 414
Color................: 8 bit
FPS..................: 23.976
Source...............: DVD 16x9
Original Format......: NTSC
Genre................: Horror
IMDb Rating..........: Not yet rated
Movie Information....: http://www.imdb.com/title/tt2431576/

-------------------------------------------------------------------------------
                               Post Information
-------------------------------------------------------------------------------
Posted by............: RadioResearch
Posted on............: 3/30/2013

-------------------------------------------------------------------------------
                                 Release Notes
-------------------------------------------------------------------------------
SEEDBOX SUPPORTED!!

Hoping to find proof of the paranormal, five film students set out to document 
the legendary Copper Queen Hospital. But as the sun goes down, they experience 
something far worse than they ever could have imagined and they find themselves 
pursued by a blood thirsty maniac.

Enjoy!

RadioResearch

General
Complete name                            : G:AVIaviANIMUSAnimus (2013) 
DVDRipANIMUS.Title1.avi
Format                                   : AVI
Format/Info                              : Audio Video Interleave
File size                                : 862 MiB
Duration                                 : 1h 20mn
Overall bit rate                         : 1 498 Kbps
Movie name                               : ANIMUS.Title1.DVDRip
Writing application                      : Lavf53.32.100
Original source form/Name                : ANIMUS

Video
ID                                       : 0
Format                                   : MPEG-4 Visual
Format profile                           : Advanced Simple@L5
Format settings, BVOP                    : 2
Format settings, QPel                    : No
Format settings, GMC                     : No warppoints
Format settings, Matrix                  : Default (H.263)
Muxing mode                              : Packed bitstream
Codec ID                                 : XVID
Codec ID/Hint                            : XviD
Duration                                 : 1h 20mn
Bit rate                                 : 1 359 Kbps
Width                                    : 720 pixels
Height                                   : 414 pixels
Display aspect ratio                     : 1.739
Frame rate                               : 23.976 fps
Color space                              : YUV
Chroma subsampling                       : 4:2:0
Bit depth                                : 8 bits
Scan type                                : Progressive
Compression mode                         : Lossy
Bits/(Pixel*Frame)                       : 0.190
Stream size                              : 782 MiB (91%)
Writing library                          : XviD 64

Audio
ID                                       : 1
Format                                   : AC-3
Format/Info                              : Audio Coding 3
Mode extension                           : CM (complete main)
Format settings, Endianness              : Big
Codec ID                                 : 2000
Duration                                 : 1h 20mn
Bit rate mode                            : Constant
Bit rate                                 : 128 Kbps
Channel(s)                               : 2 channels
Channel positions                        : Front: L R
Sampling rate                            : 48.0 KHz
Bit depth                                : 16 bits
Compression mode                         : Lossy
Stream size                              : 73.7 MiB (9%)
Alignment                                : Aligned on interleaves
Interleave, duration                     : 32 ms (0.77 video frame)




-------------------------------------------------------------------------------
Generated with Cool NFO Creator - http://fly.to/coolbeans
-------------------------------------------------------------------------------
